<svg width="88" height="60" viewBox="0 0 88 60" fill="none" xmlns="http://www.w3.org/2000/svg">
<path d="M57.5955 59.1844H0V0H57.5955V20.2496H54.9255V2.74366H2.66721V56.4407H54.9255V38.8025H57.5955V59.1844Z" fill="white"/>
<path d="M11.7656 23.5146H14.4412V28.7546L18.2699 23.5146H21.4801L17.0832 29.0652L21.8299 35.5418H18.4378L14.4412 29.8187V35.5418H11.7656V23.5146Z" fill="white"/>
<path d="M28.8073 33.0621C30.9652 33.0621 32.0847 31.4947 32.0847 29.5275C32.0847 27.3935 30.6405 25.9929 28.8073 25.9929C26.9265 25.9929 25.5328 27.3935 25.5328 29.5275C25.5328 31.5263 26.9909 33.0621 28.8073 33.0621ZM28.8073 23.4937C32.2638 23.4937 34.8442 25.8088 34.8442 29.5275C34.8442 33.0621 32.2638 35.5613 28.8073 35.5613C25.3536 35.5613 22.7732 33.2433 22.7732 29.5275C22.7732 26.1425 25.1913 23.4937 28.8073 23.4937Z" fill="white"/>
<path d="M46.095 35.5406L40.5451 28.3248V35.5406H38.0347V23.5161H40.1757L45.7284 30.7636L45.7228 23.5161H48.2304L48.236 35.5406H46.095Z" fill="white"/>
<path d="M51.4556 23.5146H61.1532V26.0915H57.6408V35.5418H54.9652V26.0915H51.4556V23.5146Z" fill="white"/>
<path d="M74.1302 30.3681C74.1302 34.0435 71.8576 35.539 69.35 35.539C66.3414 35.539 64.2507 33.7703 64.2507 30.2473V23.5205H66.9263V29.6635C66.9263 31.5357 67.4776 32.9622 69.35 32.9622C70.9704 32.9622 71.4546 31.7428 71.4546 29.8188V23.5205H74.1302V30.3681Z" fill="white"/>
<path d="M80.0225 26.1318V28.7949H80.9909C82.0125 28.7949 82.8129 28.4153 82.8129 27.403C82.8129 26.7329 82.4827 26.129 81.1952 26.129C80.7922 26.129 80.5739 26.1146 80.0225 26.1318ZM77.3469 35.539V23.5205C77.999 23.5205 80.9909 23.5205 81.3268 23.5205C84.5202 23.5205 85.6565 25.1512 85.6565 27.3685C85.6565 29.6002 84.3187 30.5119 83.6833 30.8397L87.067 35.539H83.8233L81.0077 31.3718H80.0225V35.539H77.3469Z" fill="white"/>
</svg>
