<svg width="255" height="113" viewBox="0 0 255 113" fill="none" xmlns="http://www.w3.org/2000/svg">
<path fill-rule="evenodd" clip-rule="evenodd" d="M88.6768 41.1979H239.709V86.0166H88.6768V41.1979Z" fill="#898989"/>
<path fill-rule="evenodd" clip-rule="evenodd" d="M81.2186 49.5182H255V81.0552H81.2186V49.5182ZM86.1983 51.9492H227.952V78.6258H86.1983V51.9492Z" fill="white"/>
<path fill-rule="evenodd" clip-rule="evenodd" d="M102.032 46.9711C106.336 45.4865 109.65 45.3963 113.216 47.9511C118.162 51.4921 120.735 57.6169 127.955 55.3129C129.48 54.7991 131.723 52.7534 132.266 51.674C132.494 52.6204 134.134 61.586 131.045 66.0932C130.168 67.3317 128.947 68.5548 127.539 69.492L124.958 71.2105C122.779 72.6615 120.153 73.4259 117.663 72.5009C117.466 72.4245 117.28 72.3603 117.102 72.3068C116.897 73.2899 116.472 74.3739 115.56 74.9809L112.977 76.6993C112.12 77.2712 110.828 77.4225 108.883 76.6718C103.593 74.6261 99.9861 70.6372 94.7358 72.0988C94.7251 72.1019 94.5217 72.1997 94.1747 72.3679C99.0198 71.8649 105.924 74.9747 115.988 85.4952C119.163 88.816 121.655 92.5191 121.519 96.0799C121.399 99.2356 120.839 98.8014 122.7 101.818C120.585 103.001 113.884 98.1302 109.73 97.9116C102.562 97.5339 99.3822 101.063 95.8167 101.708C89.1996 102.908 84.9492 102.023 85.6173 96.216C86.2243 90.9412 85.5898 87.8788 83.9661 84.5687C83.7092 89.8878 75.0556 96.3031 67.6877 100.69C64.2507 102.737 47.8347 106.847 50.6754 112.268C45.6667 111.507 42.4208 108.065 41.9851 102.899C41.4301 96.3047 46.6544 98.3978 48.9157 94.8308C51.2136 91.2073 48.5915 83.474 48.2613 78.8031C47.214 78.9193 46.1575 78.9163 45.0995 78.7649C37.169 77.6259 38.7789 68.5043 34.0607 67.7904C29.6421 67.1207 31.2995 72.7563 32.0303 72.9321C32.7596 73.1095 32.6648 72.8098 33.0593 72.3358L33.7182 72.4306C33.1969 73.0559 32.7902 73.3801 32.0012 73.2654C29.4694 72.848 29.5183 66.4021 34.5316 67.3118C39.5434 68.2215 38.0114 76.3385 45.2218 77.869C46.1697 78.0708 47.1803 78.0769 48.2292 77.9317C48.2521 70.7473 60.034 67.457 66.1634 66.9953L66.1481 66.9525L65.1283 66.7981C62.1133 66.3394 57.2544 64.3671 52.7303 61.7328C47.0152 60.606 41.0876 59.9944 35.5269 60.4011C28.9205 60.8827 22.5587 63.488 18.3969 66.5901C16.4124 68.0701 12.7812 72.9107 14.7612 73.8219C16.7396 74.7332 18.0055 72.0193 17.4826 71.5698C16.9598 71.1188 16.2672 71.5117 15.6586 71.4812C16.287 70.9583 17.712 70.3436 18.2823 71.154C18.8526 71.9658 17.9306 74.5512 14.6924 74.2516C9.72339 73.7929 18.4871 54.053 50.891 60.6136C49.5884 59.7819 48.3393 58.9028 47.2048 57.9992C31.6649 52.4507 20.0161 49.714 12.3975 53.6784C4.40275 57.8402 0.979509 63.5889 1.38926 68.6878C1.53756 70.5317 2.17206 73.7027 3.70404 73.9305C5.23602 74.1583 5.843 70.4675 5.19321 69.7825C4.54342 69.0976 3.89515 69.4905 3.24689 69.3453C4.55718 67.7384 5.9118 67.798 7.18538 68.8025C8.45744 69.8055 7.1701 76.0863 3.48846 75.2591C1.79748 74.8799 0.976451 73.1247 0.499429 71.6188C-1.30775 65.9052 1.60789 57.2821 12.2308 51.9217C18.9519 48.5306 31.9722 51.2245 44.5017 55.559C42.8627 53.8451 41.771 52.1128 41.586 50.4968C40.7757 43.4469 47.743 43.2757 48.6068 43.3842C44.2142 28.251 45.5291 26.7557 47.6864 20.8174C48.8637 17.5776 50.3605 16.4692 52.4765 14.1865C52.9597 18.7304 52.8404 21.0972 54.5528 25.2207L56.201 25.4699C56.7514 25.554 58.8552 28.2296 59.3887 30.5199C59.9422 32.8928 71.062 35.9889 73.8263 38.4183C75.8521 40.198 77.2801 43.1442 78.0461 46.017C76.8429 37.952 78.8458 31.3669 84.1312 28.2403C89.0773 25.314 86.4995 20.6553 86.1891 15.4845C86.1112 14.1666 85.0715 12.2585 85.4507 10.8947C85.8711 9.37805 87.3114 8.57843 87.7548 7.38434C88.9855 4.08341 90.753 1.93222 94.6563 0.250413C95.1945 0.0180172 95.7693 -0.0584287 96.3824 0.0455377C94.0279 3.97638 98.6483 5.83402 99.9265 9.32454C102.084 15.2262 119.98 16.5594 112.762 27.9452C112.068 29.0139 109.138 32.1131 110.091 32.4647C105.356 35.0639 113.858 35.6861 112.051 40.6245C110.293 45.4284 107.331 40.6429 99.2889 48.0551C100.379 47.2555 101.587 47.2707 102.032 46.9711Z" fill="#FEE6B7"/>
<path d="M69.3619 52.8712H77.6915L81.1239 63.0966L84.5089 52.8712H92.3125L84.1741 72.027C83.5029 73.5758 82.925 74.7301 82.4296 75.493C81.9327 76.2498 81.1927 76.8798 80.2218 77.3705C79.2464 77.8613 77.9055 78.1044 76.2023 78.1044C75.3003 78.1044 73.7469 77.9775 71.5452 77.7176V72.5881C72.8448 72.7257 73.7927 72.7899 74.3875 72.7899C76.161 72.7899 77.2359 72.1309 77.6227 70.8145L69.3619 52.8712ZM107.933 70.6586L114.479 71.4032C114.121 72.767 113.526 73.9504 112.705 74.9503C111.88 75.9502 110.828 76.7238 109.545 77.2788C108.268 77.8277 106.64 78.1044 104.665 78.1044C102.758 78.1044 101.17 77.9255 99.9036 77.5724C98.6331 77.2146 97.5414 76.6428 96.6287 75.8462C95.7098 75.0481 94.9942 74.1185 94.479 73.0437C93.9592 71.975 93.6993 70.5546 93.6993 68.7811C93.6993 66.9326 94.0112 65.3899 94.6472 64.1592C95.1089 63.2586 95.7388 62.4498 96.5415 61.7328C97.3457 61.0172 98.1652 60.4791 99.0138 60.1335C100.355 59.5785 102.076 59.3003 104.172 59.3003C107.108 59.3003 109.343 59.8262 110.886 60.8781C112.422 61.9239 113.508 63.4605 114.127 65.4817L107.645 66.3425C107.443 65.5749 107.073 64.997 106.536 64.6102C105.998 64.2173 105.282 64.0262 104.376 64.0262C103.238 64.0262 102.313 64.4359 101.608 65.2508C100.904 66.0718 100.55 67.3072 100.55 68.9661C100.55 70.4445 100.904 71.5652 101.602 72.3343C102.301 73.1018 103.191 73.4825 104.276 73.4825C105.178 73.4825 105.935 73.2516 106.553 72.7899C107.166 72.3282 107.628 71.6172 107.933 70.6586ZM123.924 65.5291L117.344 64.8349C117.593 63.6852 117.951 62.7786 118.419 62.1196C118.887 61.4622 119.556 60.8888 120.44 60.4041C121.07 60.0525 121.943 59.7803 123.045 59.5892C124.149 59.3996 125.345 59.3003 126.634 59.3003C128.695 59.3003 130.36 59.4165 131.607 59.6473C132.861 59.8782 133.907 60.3644 134.738 61.0967C135.327 61.6059 135.789 62.3214 136.13 63.2525C136.466 64.1882 136.633 65.0719 136.633 65.922V73.8586C136.633 74.7026 136.691 75.3661 136.795 75.8462C136.905 76.3248 137.136 76.9379 137.5 77.6824H131.035C130.776 77.2207 130.607 76.8675 130.526 76.626C130.445 76.3829 130.37 76.0022 130.291 75.4823C129.389 76.3538 128.487 76.973 127.598 77.3415C126.378 77.8384 124.964 78.0876 123.353 78.0876C121.209 78.0876 119.579 77.5907 118.465 76.5969C117.356 75.6092 116.801 74.3846 116.801 72.9275C116.801 71.5591 117.2 70.4384 118.003 69.5608C118.806 68.6771 120.278 68.0243 122.434 67.5962C125.022 67.0763 126.696 66.7125 127.465 66.5045C128.228 66.2966 129.042 66.0199 129.898 65.685C129.898 64.8349 129.724 64.2463 129.378 63.9054C129.025 63.5705 128.412 63.3962 127.528 63.3962C126.403 63.3962 125.559 63.5812 124.993 63.939C124.553 64.2234 124.195 64.7539 123.924 65.5291ZM129.898 69.1511C128.95 69.492 127.962 69.7917 126.939 70.0516C125.54 70.4216 124.652 70.7916 124.282 71.1494C123.895 71.524 123.704 71.9459 123.704 72.4199C123.704 72.9627 123.895 73.4015 124.27 73.7485C124.652 74.0895 125.207 74.2638 125.94 74.2638C126.709 74.2638 127.42 74.0773 128.083 73.7088C128.742 73.3327 129.21 72.8771 129.487 72.345C129.765 71.8083 129.898 71.1096 129.898 70.2534V69.1511ZM161.207 82.812H156.435V77.6824H143.709V82.812H138.92V72.6569H140.665C141.93 70.3987 142.559 67.4463 142.559 63.7892V59.7284H159.313V72.6569H161.207V82.812ZM152.41 72.6569V64.7539H149.11V64.9557C149.11 67.4525 148.568 70.0165 147.482 72.6569H152.41ZM170.861 66.1055H174.009C179.323 66.1055 181.974 68.0472 181.974 71.9291C181.974 75.7652 179.387 77.6824 174.211 77.6824H163.951V59.7284H170.861V66.1055ZM170.861 73.4535H173.108C173.674 73.4535 174.136 73.322 174.487 73.0605C174.847 72.8021 175.019 72.426 175.019 71.9291C175.019 70.8436 174.383 70.3054 173.108 70.3054H170.861V73.4535ZM191.27 60.2482C192.096 59.6305 193.229 59.3186 194.672 59.3186C198.046 59.3186 200.616 60.2084 202.384 61.9881C204.147 63.7601 205.03 65.9786 205.03 68.6313C205.03 71.2595 204.151 73.4947 202.402 75.3371C200.646 77.1855 198.069 78.1044 194.672 78.1044C191.287 78.1044 188.734 77.181 187.008 75.3203C185.28 73.4657 184.419 70.4384 184.419 66.2446C184.419 62.3627 185.164 59.2254 186.654 56.8341C188.139 54.4429 190.283 53.2014 193.083 53.1082L195.163 53.0393C197.024 52.9629 198.051 52.7213 198.242 52.3116H203.713C203.713 55.5972 201.864 57.3081 198.179 57.4411C195.684 57.5328 193.992 57.7759 193.1 58.1796C192.206 58.5786 191.599 59.2666 191.27 60.2482ZM194.707 73.3847C195.81 73.3847 196.66 72.981 197.254 72.1661C197.849 71.3512 198.144 70.1892 198.144 68.6771C198.144 67.1803 197.838 66.026 197.231 65.2279C196.62 64.4252 195.805 64.0262 194.776 64.0262C193.638 64.0262 192.772 64.4604 192.188 65.338C191.599 66.2094 191.304 67.3485 191.304 68.7459C191.304 70.2015 191.593 71.3405 192.177 72.1539C192.761 72.9749 193.603 73.3847 194.707 73.3847ZM214.643 65.5291L208.064 64.8349C208.312 63.6852 208.669 62.7786 209.137 62.1196C209.605 61.4622 210.276 60.8888 211.16 60.4041C211.79 60.0525 212.661 59.7803 213.765 59.5892C214.869 59.3996 216.065 59.3003 217.352 59.3003C219.415 59.3003 221.078 59.4165 222.326 59.6473C223.579 59.8782 224.625 60.3644 225.457 61.0967C226.045 61.6059 226.509 62.3214 226.85 63.2525C227.184 64.1882 227.353 65.0719 227.353 65.922V73.8586C227.353 74.7026 227.409 75.3661 227.513 75.8462C227.623 76.3248 227.854 76.9379 228.218 77.6824H221.754C221.494 77.2207 221.327 76.8675 221.246 76.626C221.165 76.3829 221.09 76.0022 221.009 75.4823C220.107 76.3538 219.207 76.973 218.317 77.3415C217.098 77.8384 215.682 78.0876 214.071 78.0876C211.927 78.0876 210.299 77.5907 209.185 76.5969C208.075 75.6092 207.52 74.3846 207.52 72.9275C207.52 71.5591 207.919 70.4384 208.721 69.5608C209.524 68.6771 210.998 68.0243 213.152 67.5962C215.741 67.0763 217.416 66.7125 218.184 66.5045C218.947 66.2966 219.762 66.0199 220.616 65.685C220.616 64.8349 220.443 64.2463 220.096 63.9054C219.743 63.5705 219.132 63.3962 218.248 63.3962C217.121 63.3962 216.277 63.5812 215.711 63.939C215.273 64.2234 214.915 64.7539 214.643 65.5291ZM220.616 69.1511C219.668 69.492 218.681 69.7917 217.658 70.0516C216.26 70.4216 215.371 70.7916 215.001 71.1494C214.614 71.524 214.423 71.9459 214.423 72.4199C214.423 72.9627 214.614 73.4015 214.99 73.7485C215.371 74.0895 215.926 74.2638 216.659 74.2638C217.427 74.2638 218.138 74.0773 218.803 73.7088C219.46 73.3327 219.928 72.8771 220.206 72.345C220.483 71.8083 220.616 71.1096 220.616 70.2534V69.1511Z" fill="white" stroke="#898989" stroke-width="0.902642" stroke-miterlimit="22.9256"/>
</svg>
